<?xml version="1.0" encoding="UTF-8"?>
<svg xmlns="http://www.w3.org/2000/svg" viewBox="0 0 512 512">
  <rect width="512" height="512" fill="#003399"/>
  <g fill="#FFCC00" transform="translate(256 256)">
    <g transform="rotate(0)  translate(0 -130)"><polygon points="0,-26 6.1,-8 24.8,-8 9.8,3 15.4,21 0,10 -15.4,21 -9.8,3 -24.8,-8 -6.1,-8"/></g>
    <g transform="rotate(30) translate(0 -130)"><polygon points="0,-26 6.1,-8 24.8,-8 9.8,3 15.4,21 0,10 -15.4,21 -9.8,3 -24.8,-8 -6.1,-8"/></g>
    <g transform="rotate(60) translate(0 -130)"><polygon points="0,-26 6.1,-8 24.8,-8 9.8,3 15.4,21 0,10 -15.4,21 -9.8,3 -24.8,-8 -6.1,-8"/></g>
    <g transform="rotate(90) translate(0 -130)"><polygon points="0,-26 6.1,-8 24.8,-8 9.8,3 15.4,21 0,10 -15.4,21 -9.8,3 -24.8,-8 -6.1,-8"/></g>
    <g transform="rotate(120) translate(0 -130)"><polygon points="0,-26 6.1,-8 24.8,-8 9.8,3 15.4,21 0,10 -15.4,21 -9.8,3 -24.8,-8 -6.1,-8"/></g>
    <g transform="rotate(150) translate(0 -130)"><polygon points="0,-26 6.1,-8 24.8,-8 9.8,3 15.4,21 0,10 -15.4,21 -9.8,3 -24.8,-8 -6.1,-8"/></g>
    <g transform="rotate(180) translate(0 -130)"><polygon points="0,-26 6.1,-8 24.8,-8 9.8,3 15.4,21 0,10 -15.4,21 -9.8,3 -24.8,-8 -6.1,-8"/></g>
    <g transform="rotate(210) translate(0 -130)"><polygon points="0,-26 6.1,-8 24.8,-8 9.8,3 15.4,21 0,10 -15.4,21 -9.8,3 -24.8,-8 -6.1,-8"/></g>
    <g transform="rotate(240) translate(0 -130)"><polygon points="0,-26 6.1,-8 24.8,-8 9.8,3 15.4,21 0,10 -15.4,21 -9.8,3 -24.8,-8 -6.1,-8"/></g>
    <g transform="rotate(270) translate(0 -130)"><polygon points="0,-26 6.1,-8 24.8,-8 9.8,3 15.4,21 0,10 -15.4,21 -9.8,3 -24.8,-8 -6.1,-8"/></g>
    <g transform="rotate(300) translate(0 -130)"><polygon points="0,-26 6.1,-8 24.8,-8 9.8,3 15.4,21 0,10 -15.4,21 -9.8,3 -24.8,-8 -6.1,-8"/></g>
    <g transform="rotate(330) translate(0 -130)"><polygon points="0,-26 6.1,-8 24.8,-8 9.8,3 15.4,21 0,10 -15.4,21 -9.8,3 -24.8,-8 -6.1,-8"/></g>
  </g>
</svg>
