<?xml version="1.0" encoding="UTF-8"?>
<svg xmlns="http://www.w3.org/2000/svg" viewBox="0 0 512 512">
  <rect width="512" height="512" rx="80" fill="#003399"/>
  <g fill="#FFCC00" transform="translate(256 256)">
    <g transform="rotate(0)  translate(0 -160)"><polygon points="0,-32 7.5,-9.9 30.5,-9.9 12,3.7 19,25.9 0,12.3 -19,25.9 -12,3.7 -30.5,-9.9 -7.5,-9.9"/></g>
    <g transform="rotate(30) translate(0 -160)"><polygon points="0,-32 7.5,-9.9 30.5,-9.9 12,3.7 19,25.9 0,12.3 -19,25.9 -12,3.7 -30.5,-9.9 -7.5,-9.9"/></g>
    <g transform="rotate(60) translate(0 -160)"><polygon points="0,-32 7.5,-9.9 30.5,-9.9 12,3.7 19,25.9 0,12.3 -19,25.9 -12,3.7 -30.5,-9.9 -7.5,-9.9"/></g>
    <g transform="rotate(90) translate(0 -160)"><polygon points="0,-32 7.5,-9.9 30.5,-9.9 12,3.7 19,25.9 0,12.3 -19,25.9 -12,3.7 -30.5,-9.9 -7.5,-9.9"/></g>
    <g transform="rotate(120) translate(0 -160)"><polygon points="0,-32 7.5,-9.9 30.5,-9.9 12,3.7 19,25.9 0,12.3 -19,25.9 -12,3.7 -30.5,-9.9 -7.5,-9.9"/></g>
    <g transform="rotate(150) translate(0 -160)"><polygon points="0,-32 7.5,-9.9 30.5,-9.9 12,3.7 19,25.9 0,12.3 -19,25.9 -12,3.7 -30.5,-9.9 -7.5,-9.9"/></g>
    <g transform="rotate(180) translate(0 -160)"><polygon points="0,-32 7.5,-9.9 30.5,-9.9 12,3.7 19,25.9 0,12.3 -19,25.9 -12,3.7 -30.5,-9.9 -7.5,-9.9"/></g>
    <g transform="rotate(210) translate(0 -160)"><polygon points="0,-32 7.5,-9.9 30.5,-9.9 12,3.7 19,25.9 0,12.3 -19,25.9 -12,3.7 -30.5,-9.9 -7.5,-9.9"/></g>
    <g transform="rotate(240) translate(0 -160)"><polygon points="0,-32 7.5,-9.9 30.5,-9.9 12,3.7 19,25.9 0,12.3 -19,25.9 -12,3.7 -30.5,-9.9 -7.5,-9.9"/></g>
    <g transform="rotate(270) translate(0 -160)"><polygon points="0,-32 7.5,-9.9 30.5,-9.9 12,3.7 19,25.9 0,12.3 -19,25.9 -12,3.7 -30.5,-9.9 -7.5,-9.9"/></g>
    <g transform="rotate(300) translate(0 -160)"><polygon points="0,-32 7.5,-9.9 30.5,-9.9 12,3.7 19,25.9 0,12.3 -19,25.9 -12,3.7 -30.5,-9.9 -7.5,-9.9"/></g>
    <g transform="rotate(330) translate(0 -160)"><polygon points="0,-32 7.5,-9.9 30.5,-9.9 12,3.7 19,25.9 0,12.3 -19,25.9 -12,3.7 -30.5,-9.9 -7.5,-9.9"/></g>
  </g>
</svg>
